<?xml version="1.0" encoding="UTF-8" standalone="no"?>
<!-- Created with Inkscape (http://www.inkscape.org/) -->

<svg
   width="215"
   height="65"
   viewBox="0 0 56.885415 17.197917"
   version="1.1"
   id="svg1028"
   inkscape:version="1.2.2 (732a01da63, 2022-12-09)"
   sodipodi:docname="logo.svg"
   xmlns:inkscape="http://www.inkscape.org/namespaces/inkscape"
   xmlns:sodipodi="http://sodipodi.sourceforge.net/DTD/sodipodi-0.dtd"
   xmlns="http://www.w3.org/2000/svg"
   xmlns:svg="http://www.w3.org/2000/svg">
  <sodipodi:namedview
     id="namedview1030"
     pagecolor="#ffffff"
     bordercolor="#000000"
     borderopacity="0.25"
     inkscape:showpageshadow="2"
     inkscape:pageopacity="0.0"
     inkscape:pagecheckerboard="0"
     inkscape:deskcolor="#d1d1d1"
     inkscape:document-units="mm"
     showgrid="false"
     inkscape:zoom="2.9825758"
     inkscape:cx="49.95682"
     inkscape:cy="-27.828296"
     inkscape:window-width="1920"
     inkscape:window-height="1017"
     inkscape:window-x="2936"
     inkscape:window-y="173"
     inkscape:window-maximized="1"
     inkscape:current-layer="layer1" />
  <defs
     id="defs1025" />
  <g
     inkscape:label="Capa 1"
     inkscape:groupmode="layer"
     id="layer1">
    <g
       id="g1316">
      <path
         style="fill:#7cb900;stroke-width:0.225752"
         d="m 23.684308,16.081553 c -2.010524,-0.69191 -3.988045,-2.60653 -5.395132,-5.22352 -0.436877,-0.81253 -0.484097,-1.0758601 -0.275151,-1.5344501 0.256045,-0.56196 0.352502,-2.11261 0.131413,-2.11261 -0.06645,0 -0.357716,0.15522 -0.647256,0.34494 -0.504677,0.33067 -0.538768,0.31516 -0.824752,-0.37526 -0.641861,-1.54959 -0.08103,-4.01516 1.101753,-4.84362 0.565676,-0.39621 0.697218,-0.23481 1.488451,1.82629 1.768702,4.60734 2.504038,6.0539901 3.802623,7.4810401 0.777179,0.85406 2.008192,1.2823 3.073566,1.06923 1.459625,-0.29193 3.72489,-3.0374901 5.471306,-6.6313801 0.271512,-0.55873 0.707013,-1.45352 0.967777,-1.98841 0.565935,-1.16089 1.61341,-2.47076 1.816772,-2.2719 0.07979,0.078 0.04779,0.58596 -0.0711,1.12876 -0.118885,0.5428 -0.424861,1.9739684 -0.560576,2.6382684 C 31.881661,9.7182515 30.2122,15.81466 25.377446,16.446783 c -0.573521,0.06649 -1.134405,-0.17294 -1.693141,-0.36523 z M 24.80351,6.1652429 c -2.013743,-1.25071 -1.676839,-4.82256 0.506222,-5.36696999 1.706185,-0.42549001 2.889618,0.71591999 2.889618,2.78700999 0,1.31682 -0.427274,2.13032 -1.376826,2.62135 -0.803858,0.41569 -1.299431,0.40553 -2.019014,-0.0414 z"
         id="path996"
         sodipodi:nodetypes="sssscccsscsccsccsscssscc" />
      <path
         style="fill:#05793d;stroke-width:0.224277"
         d="m 3.3114133,16.222493 c -1.0636948,-0.65703 -1.5152718,-1.28353 -1.8111925,-2.51276 -0.4299574,-1.786 0.2307865,-4.0635701 1.7543696,-6.0472501 3.0299789,-3.945 7.5986606,-6.11074 10.0643516,-4.77092 0.917561,0.49859 1.318863,1.53401 0.929833,2.39911 -0.313778,0.69776 -1.256671,0.96792 -1.776938,0.50913 -0.607871,-0.53604 -0.978905,-0.57506 -2.152889,-0.2264 -2.3898501,0.70976 -4.8429492,2.92117 -6.125798,5.5222601 -0.8220674,1.66682 -0.8317387,1.85213 -0.1335738,2.55951 1.3870237,1.40533 5.2096711,0.0453 10.3099958,-3.6682601 1.253272,-0.9125 2.453426,-1.988789 2.78051,-2.295919 0.814849,-0.76515 1.238367,-0.7533454 1.068115,0.436179 -0.113428,0.7925004 -0.0051,1.2706271 -0.899625,2.0976871 -3.904234,3.60977 -9.6695155,6.469343 -12.3409464,6.466863 -0.5253373,-5e-4 -1.2274531,-0.19822 -1.6662123,-0.46923 z m 42.2551607,-3.08841 c -0.341077,-0.21424 -0.771733,-0.80333 -0.968061,-1.32419 -0.334277,-0.88687 -0.326115,-1.04163 0.149171,-2.8250301 0.276559,-1.03772 0.547246,-2.26772 0.601539,-2.73333 0.08429,-0.72303 0.03533,-0.84657 -0.335767,-0.84657 -0.719986,0 -2.998163,1.64011 -5.930512,4.26953 -4.294131,3.8505101 -5.005388,4.2153701 -5.920242,3.0369701 -0.843726,-1.08679 -0.425304,-2.44166 1.363392,-4.4147501 1.07136,-1.1818 1.89343,-2.58558 1.655391,-2.82676 -0.199851,-0.20249 -1.445346,0.4752 -2.232524,1.21475 -0.33484,0.31458 -0.648728,0.53151 -0.697526,0.48206 -0.0488,-0.0494 0.109577,-0.74544 0.351951,-1.54667 0.415959,-1.37506 0.515192,-1.50425 1.769239,-2.30334 1.663245,-1.05983 2.647711,-1.12615 3.351415,-0.22575 0.403793,0.51665 0.463952,0.8102 0.358557,1.74958 -0.06966,0.62081 -0.192149,1.35733 -0.272207,1.6367 -0.243563,0.84993 0.268713,0.60433 2.542886,-1.21914 2.182427,-1.7499 3.984893,-2.78174 4.866298,-2.78576 0.638137,-0.003 1.725957,0.94245 2.079441,1.8071 0.375128,0.91758 0.168663,3.10512 -0.409534,4.33922 -0.631464,1.34778 -0.715604,2.4300601 -0.188926,2.4300601 0.290939,0 2.272966,-1.2893401 5.484946,-3.5680301 1.727654,-1.22565 2.145489,-1.23591 1.869393,-0.0459 -0.181849,0.78381 -0.803079,1.43939 -2.746623,2.8985201 -0.919098,0.69002 -1.7045,1.33644 -1.745351,1.43649 -0.04086,0.10005 -0.157431,0.18191 -0.25907,0.18191 -0.101638,0 -0.717647,0.35556 -1.368919,0.79013 -1.336251,0.89164 -2.379806,1.01315 -3.368357,0.39218 z"
         id="path992"
         sodipodi:nodetypes="cscsssscsccscccccscscsssscsssssscssssssssscc" />
    </g>
  </g>
</svg>
